<svg xmlns="http://www.w3.org/2000/svg" xmlns:xlink="http://www.w3.org/1999/xlink" version="1.1" id="Layer_1" x="0px" y="0px" width="100px" height="100px" viewBox="0 0 100 100" enable-background="new 0 0 100 100" xml:space="preserve">
<path d="M85.17,42.918c-0.161,0-0.32,0.015-0.479,0.024c-0.631-0.83-1.361-1.591-2.204-2.245c-0.075-0.072-0.159-0.138-0.248-0.2  L57.888,23.921l2.461-4.263c0.592-1.022,0.748-2.214,0.443-3.357c-0.307-1.141-1.038-2.096-2.061-2.685l-3.2-1.847  c-0.671-0.389-1.435-0.593-2.209-0.593c-1.575,0-3.043,0.846-3.831,2.21l-12.096,20.95l-11.422-7.775l-7.606-13.177  c-0.788-1.363-2.256-2.209-3.832-2.209c-0.773,0-1.538,0.205-2.209,0.593l-3.199,1.847c-1.022,0.589-1.754,1.544-2.06,2.685  c-0.306,1.143-0.149,2.334,0.442,3.355L27.66,54.562v30.249c0,2.438,1.983,4.421,4.422,4.421h3.694c2.438,0,4.422-1.983,4.422-4.421  V54.562l5.582-9.669l21.98,14.963c0.101,0.111,0.211,0.21,0.334,0.296c1.465,1.036,3.119,1.705,4.861,2.013  c0.065,0.147,0.125,0.295,0.2,0.439c1.263,2.459,3.767,3.987,6.535,3.987c1.16,0,2.319-0.281,3.354-0.813  c5.841-3.003,9.469-8.948,9.469-15.515C92.515,46.213,89.221,42.918,85.17,42.918z M52.959,15.392  c0.112-0.193,0.307-0.208,0.363-0.208c0.072,0,0.142,0.02,0.206,0.056l3.2,1.847c0.122,0.072,0.172,0.177,0.192,0.253  c0.021,0.076,0.03,0.193-0.041,0.316l-1.771,3.07l-3.92-2.264L52.959,15.392z M35.386,37.816l-1.458,2.525l-3.345-5.794  L35.386,37.816z M10.937,17.338c0.02-0.076,0.07-0.181,0.194-0.253l3.199-1.847c0.064-0.036,0.134-0.056,0.206-0.056  c0.057,0,0.251,0.016,0.363,0.207l1.772,3.071l-3.92,2.263l-1.773-3.071C10.907,17.532,10.917,17.414,10.937,17.338z M36.461,53.022  c-0.176,0.305-0.269,0.649-0.269,1.001v30.787c0,0.229-0.186,0.415-0.416,0.415h-3.694c-0.229,0-0.416-0.187-0.416-0.415V54.023  c0-0.352-0.093-0.697-0.269-1.001L16.089,26.506l3.92-2.263l12.185,21.105c0.357,0.619,1.019,1.001,1.734,1.001  c0.716,0,1.377-0.382,1.734-1.001L47.85,24.242l3.92,2.264L36.461,53.022z M72.474,57.918c-0.652-0.222-1.28-0.512-1.862-0.897  c-0.108-0.12-0.23-0.229-0.365-0.319L47.79,41.413l8.088-14.011l23.638,16.088c0.023,0.018,0.05,0.037,0.076,0.053l0.008,0.007  c0.397,0.269,0.755,0.578,1.093,0.905c-1.74,1.345-2.866,3.444-2.866,5.807c0,1.037-0.574,1.976-1.498,2.45  C74.228,53.794,72.875,55.757,72.474,57.918z M81.214,62.215c-1.608,0.825-3.678,0.147-4.495-1.442  c-0.842-1.638-0.194-3.654,1.44-4.496c2.267-1.164,3.673-3.468,3.673-6.014c0-1.841,1.498-3.338,3.338-3.338  c1.842,0,3.339,1.497,3.339,3.338C88.509,55.321,85.714,59.9,81.214,62.215z"/>
</svg>