<svg xmlns:inkscape="http://www.inkscape.org/namespaces/inkscape" xmlns:sodipodi="http://sodipodi.sourceforge.net/DTD/sodipodi-0.dtd" xmlns:rdf="http://www.w3.org/1999/02/22-rdf-syntax-ns#" xmlns:svg="http://www.w3.org/2000/svg" xmlns:cc="http://creativecommons.org/ns#" xmlns:dc="http://purl.org/dc/elements/1.1/" xmlns="http://www.w3.org/2000/svg" xmlns:xlink="http://www.w3.org/1999/xlink" version="1.1" id="svg2" sodipodi:docname="eye.svg" inkscape:version="0.48.2 r9819" inkscape:export-filename="/Users/jamoroch/Desktop/overview.png" inkscape:export-xdpi="1104.7565" inkscape:export-ydpi="1104.7565" x="0px" y="0px" width="100px" height="100px" viewBox="0 0 100 100" enable-background="new 0 0 100 100" xml:space="preserve">
<sodipodi:namedview id="namedview10" borderopacity="1" objecttolerance="10" bordercolor="#666666" pagecolor="#ffffff" guidetolerance="10" gridtolerance="10" inkscape:pageopacity="0" inkscape:pageshadow="2" showguides="true" inkscape:window-width="1440" inkscape:window-height="826" showgrid="false" inkscape:guide-bbox="true" inkscape:snap-bbox="true" inkscape:bbox-paths="true" inkscape:bbox-nodes="true" inkscape:snap-bbox-edge-midpoints="true" inkscape:cx="50.125" inkscape:snap-bbox-midpoints="true" inkscape:zoom="5.1146162" inkscape:cy="50.0625" inkscape:window-x="0" inkscape:window-y="0" inkscape:window-maximized="1" inkscape:current-layer="svg2">
	<sodipodi:guide id="guide3071" orientation="0,1" position="56.274651,50.07001"/>
	<sodipodi:guide id="guide3073" orientation="1,0" position="50.07001,20.056863"/>
</sodipodi:namedview>
<path id="path3067" d="M50.281,1C31.284,1,14.843,11.797,6.75,27.625C18.7,18.422,33.831,10.25,50.156,10.25  c16.494,0,31.816,8.371,43.844,17.719C85.972,11.952,69.418,1,50.281,1z M50.156,18.719c-17.256,0-31.25,13.994-31.25,31.25  c0,17.257,13.994,31.25,31.25,31.25c17.256,0,31.25-13.993,31.25-31.25C81.406,32.712,67.412,18.719,50.156,18.719z M93.812,72.188  c-11.981,9.268-27.237,17.531-43.656,17.531c-16.203,0-31.289-8.07-43.219-17.219c8.166,15.605,24.51,26.25,43.344,26.25  C69.237,98.75,85.701,87.96,93.812,72.188z"/>
</svg>