<svg xmlns="http://www.w3.org/2000/svg" xmlns:xlink="http://www.w3.org/1999/xlink" version="1.1" id="&#22294;&#23652;_1" x="0px" y="0px" width="100px" height="100px" viewBox="0 0 100 100" enable-background="new 0 0 100 100" xml:space="preserve">
<path d="M95.811,38.795c-1.569-1.085-3.32-1.368-5.179-1.113c-1.324,0.182-2.528,0.643-3.41,1.691  c-0.283,0.335-0.555,0.429-0.97,0.405c-8.694-0.507-10.752-1.003-19.447-1.501c-2.477-0.142-4.952-0.282-7.429-0.427  c-0.245-0.015-0.521,0.054-0.529-0.378c-0.032-1.716-0.767-3.117-2.003-4.277c-0.102-0.095-0.197-0.197-0.313-0.314  c0.124-0.106,0.207-0.188,0.299-0.254c3.468-2.501,6.944-4.99,10.396-7.514c0.57-0.417,1.081-0.541,1.794-0.425  c2.011,0.327,3.871-0.082,5.4-1.517c1.054-0.988,1.013-2.395-0.075-3.337c-0.284-0.246-0.615-0.438-0.926-0.655  c-0.531-0.161-1.062-0.321-1.593-0.481c-0.509-0.007-1.021-0.054-1.526-0.014c-1.494,0.116-2.871,0.545-3.929,1.679  c-0.832,0.892-0.893,1.907-0.213,2.913c0.054,0.08,0.089,0.172,0.136,0.264c-0.091,0.071-0.158,0.125-0.229,0.176  c-3.483,2.48-6.973,4.95-10.44,7.451c-0.575,0.415-1.088,0.717-1.746,0.225c-0.044-0.033-0.109-0.038-0.165-0.057  c-2.658-0.93-5.369-1.033-8.114-0.484c-0.309,0.062-0.474,0.02-0.606-0.289c-0.719-1.691,1.196,3.263,0.463,1.577  c-1.152-2.649-2.304-5.299-3.454-7.949c-0.213-0.49-0.421-0.982-0.673-1.574c0.195-0.067,0.355-0.102,0.497-0.174  c0.872-0.44,1.641-1.006,2.184-1.839c0.836-1.283,0.554-2.615-0.734-3.439c-0.753-0.483-1.597-0.732-2.474-0.808  c-2.519-0.22-4.812,0.364-6.766,2.033c-0.564,0.482-1.002,1.075-1.16,1.814c-0.248,1.165,0.345,2.158,1.591,2.755  c1.372,0.657,2.817,0.7,4.282,0.489c0.369-0.053,0.515,0.058,0.643,0.38c0.511,1.273,1.045,2.537,1.573,3.802  c1.441,3.446,0.228,0.255,1.676,3.699c0.107,0.257,0.052,0.377-0.201,0.505c-0.794,0.398-1.606,0.775-2.35,1.259  c-1.886,1.229-3.402,2.788-4.153,4.98c-0.042,0.125-0.225,0.242-0.367,0.283c-0.191,0.056-0.405,0.037-0.609,0.047  c-4.691,0.254-9.384,0.508-14.076,0.761c-2.624,0.142-5.246,0.276-7.868,0.427c-0.378,0.022-0.576-0.064-0.772-0.437  c-0.214-0.405-0.569-0.795-0.958-1.036c-0.909-0.562-1.942-0.706-2.996-0.575c-2.249,0.279-4.12,1.223-5.412,3.152  c-0.127,0.419-0.253,0.838-0.379,1.257c0.256,1.584,0.835,2.234,2.418,2.563c0.576,0.119,1.192,0.149,1.778,0.097  c2.101-0.187,3.884-1.019,5.148-2.766c0.223-0.309,0.451-0.433,0.819-0.452c5.174-0.264,10.345-0.542,15.518-0.815  c2.317-0.123,4.635-0.236,6.95-0.369c0.369-0.021,0.53,0.077,0.551,0.466c0.015,0.316,0.098,0.635,0.197,0.939  c0.702,2.178,2.321,3.47,4.304,4.397c0.486,0.228,0.502,0.215,0.231,0.685c-1.478,2.55-2.959,5.098-4.439,7.646  c-2.88,4.956-5.762,9.913-8.636,14.874c-0.167,0.289-0.348,0.424-0.697,0.371c-0.345-0.053-0.699-0.051-1.048-0.043  c-3.751,0.08-7.048,1.383-9.895,3.793c-2.321,1.963-3.937,4.387-4.343,7.463c-0.379,2.876,0.464,5.355,2.696,7.263  c1.973,1.687,4.341,2.353,6.893,2.352c3.509-0.001,6.654-1.14,9.409-3.292c2.437-1.902,4.177-4.277,4.85-7.371  c0.836-3.839-1.256-7.835-4.927-9.292c-0.506-0.2-0.509-0.219-0.25-0.675c2.649-4.67,5.295-9.34,7.944-14.01  c1.605-2.828,3.214-5.656,4.818-8.486c0.141-0.246,0.255-0.452,0.629-0.397c2.682,0.385,5.296,0.073,7.838-0.851  c0.252-0.092,0.413-0.072,0.608,0.131c4.263,4.424,12.517,14.812,16.786,19.23c0.467,0.482,0.931,0.971,1.404,1.465  c-2.738,2.648-3.866,6.398-2.544,9.699c1.836,4.584,7.683,6.555,13.062,4.401c5.377-2.154,8.248-7.616,6.411-12.2  c-1.835-4.584-7.683-6.555-13.061-4.4c-0.565,0.227-1.096,0.497-1.604,0.792c-0.271-0.146-0.531-0.358-0.806-0.642  c-4.345-4.485-12.74-14.878-17.13-19.321c-0.126-0.128-0.233-0.273-0.363-0.428c0.134-0.092,0.217-0.15,0.3-0.207  c1.684-1.139,3.127-2.5,3.939-4.407c0.183-0.427,0.427-0.492,0.838-0.466c7.192,0.44,14.386,0.869,21.579,1.3  c3.976,0.238,1.314,0.48,5.29,0.709c0.356,0.021,0.544,0.135,0.66,0.49c0.262,0.804,0.786,1.441,1.489,1.893  c2.312,1.487,4.767,1.696,7.252,0.545C98.029,43.392,98.226,40.466,95.811,38.795z"/>
</svg>